Coordinates
version=1
nRows=24
nColumns=34
inDegrees=no

Units are S.I. units (second, meters, Newtons, ...)
If the header above contains a line with 'inDegrees', this indicates whether rotational values are in degrees (yes) or radians (no).

endheader
time	pelvis_tilt	pelvis_list	pelvis_rotation	pelvis_tx	pelvis_ty	pelvis_tz	hip_flexion_r	hip_adduction_r	hip_rotation_r	knee_angle_r	ankle_angle_r	subtalar_angle_r	mtp_angle_r	hip_flexion_l	hip_adduction_l	hip_rotation_l	knee_angle_l	ankle_angle_l	subtalar_angle_l	mtp_angle_l	lumbar_extension	lumbar_bending	lumbar_rotation	arm_flex_r	arm_add_r	arm_rot_r	elbow_flex_r	pro_sup_r	arm_flex_l	arm_add_l	arm_rot_l	elbow_flex_l	pro_sup_l
0	0.00704824	-0.133778	0.111601	-0.0419491	0.896573	-0.284099	0.29315	0.146728	-0.00931149	-0.0281763	-0.0519092	-0.252658	-0.00690359	-0.323606	-0.199291	-0.435652	0.245473	0.467888	0.639955	-0.00919899	-0.25082	0.214196	-0.219068	-0.174661	-0.222591	-0.232798	0.524038	1.65615	0.0989949	-0.194876	0.106782	0.968963	1.88742
0.01	0.0016844	-0.155412	0.109331	-0.0288701	0.899955	-0.285215	0.293486	0.167695	-0.0164161	-0.0258041	-0.074845	-0.267601	-0.00690835	-0.327372	-0.225438	-0.451717	0.258386	0.452118	0.654883	-0.00914401	-0.243856	0.253659	-0.215583	-0.173565	-0.231919	-0.237113	0.533272	1.65838	0.0826724	-0.18024	0.101442	0.948138	1.8827
0.02	-0.00367836	-0.176113	0.106854	-0.015898	0.902983	-0.286242	0.293157	0.188153	-0.0220214	-0.0229136	-0.0939062	-0.280726	-0.00691311	-0.328724	-0.250443	-0.46217	0.274704	0.433568	0.665068	-0.00908902	-0.237122	0.291801	-0.211912	-0.172319	-0.240676	-0.24262	0.542569	1.66045	0.0663834	-0.166635	0.097709	0.927193	1.87929
0.03	-0.00904877	-0.195832	0.104172	-0.00304001	0.905682	-0.287188	0.292166	0.208047	-0.0261268	-0.0195281	-0.109087	-0.292006	-0.00691788	-0.327606	-0.274248	-0.466953	0.294466	0.412247	0.670354	-0.00903403	-0.230606	0.328561	-0.208072	-0.170904	-0.24885	-0.249293	0.551903	1.66236	0.0501313	-0.154082	0.095582	0.906153	1.87722
0.04	-0.0144538	-0.214436	0.101306	0.00969215	0.908082	-0.288061	0.290516	0.227226	-0.0287488	-0.0157253	-0.1204	-0.301381	-0.00692264	-0.323858	-0.296697	-0.465935	0.317797	0.388188	0.670274	-0.00897903	-0.224283	0.363774	-0.204113	-0.16926	-0.256412	-0.257045	0.561203	1.66404	0.0339274	-0.142635	0.095052	0.885089	1.87651
0.05	-0.0199338	-0.231717	0.0982938	0.0222804	0.910212	-0.288867	0.288216	0.245435	-0.0299519	-0.0116591	-0.127925	-0.308784	-0.0069274	-0.317203	-0.317532	-0.458955	0.344925	0.361471	0.664002	-0.00892402	-0.218113	0.397165	-0.200118	-0.167291	-0.263314	-0.265708	0.570345	1.66537	0.0177956	-0.132388	0.0960933	0.864142	1.87721
0.06	-0.0255333	-0.247418	0.0952049	0.0347006	0.912097	-0.289613	0.285296	0.262349	-0.0298922	-0.00754533	-0.13184	-0.314154	-0.00693216	-0.307282	-0.336441	-0.445923	0.376143	0.332246	0.650473	-0.00886901	-0.212044	0.428389	-0.196204	-0.164875	-0.269496	-0.275028	0.579184	1.66621	0.00177496	-0.123466	0.0986531	0.843518	1.87933
0.07	-0.0312959	-0.261289	0.0921296	0.0469238	0.913763	-0.290302	0.281835	0.277615	-0.0288817	-0.00358492	-0.132423	-0.317415	-0.00693693	-0.293704	-0.353114	-0.426928	0.411745	0.300753	0.628684	-0.00881399	-0.206016	0.457095	-0.192489	-0.161896	-0.274897	-0.284691	0.587594	1.6664	-0.0140811	-0.116001	0.102641	0.823481	1.88285
0.08	-0.0372635	-0.273134	0.0891668	0.058918	0.915228	-0.290939	0.277995	0.290903	-0.0274628	0.000139394	-0.129982	-0.318368	-0.00694169	-0.276127	-0.367303	-0.402345	0.451936	0.267354	0.598107	-0.00875895	-0.199963	0.482989	-0.189069	-0.158275	-0.279476	-0.294354	0.595503	1.66584	-0.0297116	-0.110112	0.107917	0.804344	1.88766
0.09	-0.0434734	-0.282849	0.0864019	0.0706525	0.91651	-0.291524	0.274035	0.30194	-0.0264637	0.00374691	-0.124758	-0.316566	-0.00694646	-0.254326	-0.378868	-0.372902	0.496742	0.232566	0.559095	-0.00870392	-0.193824	0.505873	-0.185985	-0.153987	-0.283216	-0.303694	0.60292	1.66449	-0.0450584	-0.105879	0.114272	0.786447	1.89359
0.1	-0.0499532	-0.290437	0.083886	0.0821001	0.917622	-0.292057	0.270302	0.310543	-0.0270009	0.007588	-0.116848	-0.31122	-0.00695122	-0.228258	-0.387797	-0.339667	0.545951	0.197092	0.513069	-0.00864887	-0.187557	0.525675	-0.183199	-0.149081	-0.286137	-0.312445	0.609947	1.66241	-0.0600738	-0.103327	0.121424	0.770125	1.90043
0.11	-0.056707	-0.295997	0.0816225	0.0932402	0.918578	-0.292539	0.267173	0.316623	-0.0303668	0.0121952	-0.106188	-0.301241	-0.00695598	-0.198102	-0.394179	-0.303918	0.599076	0.161834	0.462229	-0.00859382	-0.18117	0.542446	-0.180584	-0.143662	-0.288296	-0.320418	0.616756	1.65974	-0.0747247	-0.10241	0.129006	0.755673	1.90792
0.12	-0.0636993	-0.299695	0.0795701	0.104062	0.919393	-0.292967	0.264961	0.320192	-0.0377987	0.0181561	-0.0926251	-0.285462	-0.00696075	-0.164265	-0.398158	-0.266972	0.655363	0.127862	0.409084	-0.00853877	-0.174743	0.556332	-0.177941	-0.13787	-0.289784	-0.327495	0.623552	1.65672	-0.0889931	-0.103014	0.136567	0.743322	1.91585
0.13	-0.0708339	-0.301742	0.0776582	0.114565	0.92009	-0.29334	0.26381	0.321368	-0.0501692	0.0259371	-0.0760625	-0.262999	-0.00696551	-0.127371	-0.399896	-0.23004	0.713847	0.0963468	0.355974	-0.0084837	-0.168454	0.567539	-0.175024	-0.131852	-0.29072	-0.333606	0.630532	1.6536	-0.102873	-0.10496	0.143593	0.733212	1.92399
0.14	-0.0779347	-0.302374	0.0758098	0.124765	0.920697	-0.293656	0.26361	0.320391	-0.0676742	0.0357053	-0.0566346	-0.233674	-0.00697028	-0.0882041	-0.399556	-0.19412	0.773428	0.0684474	0.304734	-0.00842863	-0.162562	0.576312	-0.171584	-0.125735	-0.291235	-0.338706	0.637845	1.65063	-0.116364	-0.108025	0.149542	0.725376	1.93211
0.15	-0.0847519	-0.301827	0.0739705	0.134687	0.921247	-0.293912	0.263969	0.317621	-0.0896225	0.0472118	-0.0348389	-0.198337	-0.00697504	-0.0476332	-0.397307	-0.159935	0.832968	0.0451651	0.256514	-0.00837355	-0.157383	0.582909	-0.167412	-0.119614	-0.291458	-0.342756	0.645575	1.64803	-0.129468	-0.111966	0.153899	0.719738	1.93991
0.16	-0.0909923	-0.300329	0.0721307	0.144367	0.921776	-0.294106	0.264256	0.313528	-0.114441	0.059788	-0.0115547	-0.158942	-0.0069798	-0.0065193	-0.393316	-0.127918	0.89138	0.0271997	0.21176	-0.00831846	-0.153236	0.58759	-0.162378	-0.113551	-0.291503	-0.345717	0.65374	1.64593	-0.142176	-0.116538	0.156228	0.716115	1.94709
0.17	-0.0963697	-0.29808	0.070331	0.153848	0.92232	-0.294236	0.263739	0.308629	-0.139998	0.0724973	0.0121094	-0.118183	-0.00698456	0.0343834	-0.387737	-0.0982202	0.947693	0.0148324	0.170313	-0.00826337	-0.150388	0.590595	-0.156446	-0.10758	-0.291459	-0.347557	0.6623	1.6444	-0.15447	-0.121516	0.156218	0.714231	1.95329
0.18	-0.100657	-0.295237	0.068652	0.163166	0.922907	-0.294307	0.261764	0.303396	-0.164155	0.084394	0.0350873	-0.0788266	-0.00698933	0.0745041	-0.380685	-0.0707484	1.0011	0.00787064	0.1316	-0.00820827	-0.148992	0.592122	-0.149672	-0.101717	-0.29139	-0.348258	0.671182	1.64338	-0.166311	-0.126705	0.153704	0.713733	1.95823
0.19	-0.103718	-0.291906	0.0672003	0.172356	0.923557	-0.294324	0.257873	0.29819	-0.185138	0.0947147	0.0565316	-0.0432554	-0.00699409	0.113479	-0.372217	-0.0452315	1.05094	0.00567704	0.0948603	-0.00815316	-0.149074	0.59232	-0.142195	-0.095972	-0.291334	-0.347828	0.680303	1.64272	-0.177645	-0.131945	0.148673	0.714227	1.96164
0.2	-0.105517	-0.288138	0.0660905	0.181442	0.924279	-0.294297	0.25187	0.293216	-0.201797	0.103016	0.0759301	-0.0131298	-0.00699885	0.151133	-0.362335	-0.0212968	1.09673	0.00728001	0.059372	-0.00809805	-0.150534	0.591281	-0.134209	-0.0903566	-0.291306	-0.346312	0.689579	1.6422	-0.188409	-0.137112	0.141246	0.715305	1.9634
0.21	-0.106107	-0.283937	0.065426	0.190442	0.925073	-0.294238	0.243809	0.288521	-0.213668	0.109212	0.0931239	0.0107145	-0.00700361	0.18743	-0.350999	0.00144781	1.13807	0.0115448	0.0246342	-0.00804293	-0.15318	0.589049	-0.125934	-0.0848882	-0.291303	-0.343784	0.698936	1.64159	-0.19854	-0.142115	0.131635	0.716583	1.96349
0.22	-0.105606	-0.279277	0.0652841	0.199365	0.92593	-0.294157	0.233949	0.284017	-0.22092	0.113544	0.108264	0.028233	-0.00700837	0.222412	-0.338164	0.0233423	1.17469	0.0173654	-0.00953088	-0.0079878	-0.156768	0.58563	-0.117585	-0.0795873	-0.291308	-0.340349	0.708305	1.64069	-0.207981	-0.146891	0.12011	0.717727	1.96207
0.23	-0.104166	-0.274113	0.0657037	0.208217	0.926836	-0.29406	0.222676	0.27952	-0.224232	0.116496	0.121735	0.0400602	-0.00701313	0.256138	-0.323807	0.0446192	1.20634	0.0238337	-0.0429627	-0.00793266	-0.161049	0.581007	-0.109347	-0.0744729	-0.291296	-0.336122	0.717615	1.63935	-0.216692	-0.151398	0.106948	0.718478	1.95943
